# File created by Blade
# Date/Time:  Wed Apr 08 17:31:45 2015
#---------------------------------------------------------
:version 1.10
:name HOM
:units
  mass 1.0
  length 1.000000
  angle deg
:documentation
     Acclaim Skeleton File
:root
   axis xyz
   order TX TY TZ RX RY RZ
   position 0.000000 0.000000 0.000000
   orientation 0 0 0
:bonedata
   begin
      id 1
      name Spine_dum
      direction 0.000000 1.000000 0.000000
      length 5.893853
      axis 0.0 0.0 0.0 xyz
   end
   begin
      id 2
      name LeftUpLeg_dum
      direction 1.000000 0.000000 0.000000
      length 3.697939
      axis 0.0 0.0 0.0 xyz
   end
   begin
      id 3
      name RightUpLeg_dum
      direction -1.000000 0.000000 0.000000
      length 3.697939
      axis 0.0 0.0 0.0 xyz
   end
   begin
      id 4
      name Spine
      direction 0.000000 1.000000 0.000000
      length 0.000000
      axis 0.0 0.0 0.0 xyz
      dof rx ry rz
   end
   begin
      id 5
      name Spine_dum1
      direction 0.000000 1.000000 0.000000
      length 16.447146
      axis 0.0 0.0 0.0 xyz
   end
   begin
      id 6
      name Spine_dum2
      direction 0.000000 1.000000 0.000000
      length 10.900383
      axis 0.0 0.0 0.0 xyz
   end
   begin
      id 7
      name Spine_dum3
      direction 0.000000 1.000000 0.000000
      length 10.900383
      axis 0.0 0.0 0.0 xyz
   end
   begin
      id 8
      name Head
      direction 0.000000 1.000000 0.000000
      length 4.527550
      axis 0.0 0.0 0.0 xyz
      dof rx ry rz
   end
   begin
      id 9
      name LeftShoulder
      direction 1.000000 0.000000 0.000000
      length 8.219464
      axis 0.0 0.0 -90.0 xyz
      dof rx ry rz
   end
   begin
      id 10
      name LeftArm
      direction 1.000000 0.000000 0.000000
      length 11.094937
      axis 0.0 0.0 -90.0 xyz
      dof rx ry rz
   end
   begin
      id 11
      name LeftForeArm
      direction 1.000000 0.000000 0.000000
      length 9.103875
      axis 0.0 0.0 -90.0 xyz
      dof ry rz rx
   end
   begin
      id 12
      name LeftHand
      direction 0.000000 0.000000 0.000000
      length 0.000000
      axis 0.0 0.0 -90.0 xyz
      dof rx ry rz
   end
   begin
      id 13
      name LeftHand_dum1
      direction 0.000000 0.000000 0.000000
      length 0.000000
      axis 0.0 0.0 -90.0 xyz
   end
   begin
      id 14
      name LeftHand_dum2
      direction 1.000000 0.000000 0.000000
      length 3.937000
      axis 0.0 0.0 -90.0 xyz
   end
   begin
      id 15
      name LeftHandThumb1
      direction 0.000000 0.000000 1.000000
      length 3.937000
      axis 0.0 0.0 -90.0 xyz
      dof rx rz ry
   end
   begin
      id 16
      name RightShoulder
      direction -1.000000 0.000000 0.000000
      length 8.219464
      axis 0.0 0.0 90.0 xyz
      dof rx ry rz
   end
   begin
      id 17
      name RightArm
      direction -1.000000 0.000000 0.000000
      length 11.094937
      axis 0.0 0.0 90.0 xyz
      dof rx ry rz
   end
   begin
      id 18
      name RightForeArm
      direction -1.000000 0.000000 0.000000
      length 9.103875
      axis 0.0 0.0 90.0 xyz
      dof ry rz rx
   end
   begin
      id 19
      name RightHand
      direction 0.000000 0.000000 0.000000
      length 0.000000
      axis 0.0 0.0 90.0 xyz
      dof rx ry rz
   end
   begin
      id 20
      name RightHand_dum1
      direction 0.000000 0.000000 0.000000
      length 0.000000
      axis 0.0 0.0 90.0 xyz
   end
   begin
      id 21
      name RightHand_dum2
      direction -1.000000 0.000000 0.000000
      length 3.937000
      axis 0.0 0.0 90.0 xyz
   end
   begin
      id 22
      name RightHandThumb1
      direction 0.000000 0.000000 1.000000
      length 3.937000
      axis 0.0 0.0 90.0 xyz
      dof rx rz ry
   end
   begin
      id 23
      name LeftUpLeg
      direction 0.000000 -1.000000 0.000000
      length 16.181467
      axis 0.0 0.0 0.0 xyz
      dof rx ry rz
   end
   begin
      id 24
      name LeftLeg
      direction 0.000000 -1.000000 0.000000
      length 16.501392
      axis 0.0 0.0 0.0 xyz
      dof rx ry rz
   end
   begin
      id 25
      name LeftFoot
      direction 0.000000 -0.258819 0.965926
      length 6.408245
      axis 15.0 0.0 0.0 xyz
      dof rx ry rz
   end
   begin
      id 26
      name LeftToeBase
      direction 0.000000 0.000000 1.000000
      length 2.952750
      axis 0.0 0.0 0.0 xyz
      dof rx ry rz
   end
   begin
      id 27
      name RightUpLeg
      direction 0.000000 -1.000000 0.000000
      length 16.181467
      axis 0.0 0.0 0.0 xyz
      dof rx ry rz
   end
   begin
      id 28
      name RightLeg
      direction 0.000000 -1.000000 0.000000
      length 16.501392
      axis 0.0 0.0 0.0 xyz
      dof rx ry rz
   end
   begin
      id 29
      name RightFoot
      direction 0.000000 -0.258819 0.965926
      length 6.408245
      axis 15.0 0.0 0.0 xyz
      dof rx ry rz
   end
   begin
      id 30
      name RightToeBase
      direction 0.000000 0.000000 1.000000
      length 2.952750
      axis 0.0 0.0 0.0 xyz
      dof rx ry rz
   end
:hierarchy
   begin
      root Spine_dum LeftUpLeg_dum RightUpLeg_dum
      Spine_dum Spine
      LeftUpLeg_dum LeftUpLeg
      RightUpLeg_dum RightUpLeg
      Spine Spine_dum1 Spine_dum2 Spine_dum3
      Spine_dum1 Head
      Spine_dum2 LeftShoulder
      Spine_dum3 RightShoulder
      LeftShoulder LeftArm
      LeftArm LeftForeArm
      LeftForeArm LeftHand
      LeftHand LeftHand_dum1 LeftHand_dum2
      LeftHand_dum1 LeftHandThumb1
      RightShoulder RightArm
      RightArm RightForeArm
      RightForeArm RightHand
      RightHand RightHand_dum1 RightHand_dum2
      RightHand_dum1 RightHandThumb1
      LeftUpLeg LeftLeg
      LeftLeg LeftFoot
      LeftFoot LeftToeBase
      RightUpLeg RightLeg
      RightLeg RightFoot
      RightFoot RightToeBase
   end

# File created by Blade
# Date/Time:  Wed Apr 08 17:31:39 2015
# Frame Rate: 120.000 fps
#------------------------------------------------------
:FULLY-SPECIFIED
:DEGREES
1
root 6.529739 36.247122 0.153038 -141.989068 -86.901196 168.694273
Spine -27.522816 0.189517 -2.483997
Head 6.145252 10.613424 4.633846
LeftShoulder -4.168927 11.357354 30.146093
LeftArm 14.707259 -39.855907 -41.605484
LeftForeArm 11.379437 -0.000000 0.233932
LeftHand -11.782165 -0.000000 -10.247368
LeftHandThumb1 -26.253704 0.000000 33.147579
RightShoulder -21.797467 -39.703587 -13.558377
RightArm 60.570664 49.617073 63.589112
RightForeArm 8.010793 0.000000 -2.662425
RightHand -2.060901 -0.000000 6.571311
RightHandThumb1 -24.326973 -0.000000 -32.862282
LeftUpLeg -29.548975 14.531245 0.570589
LeftLeg 12.967528 -0.000000 -0.000000
LeftFoot -9.084932 7.842406 -13.353799
LeftToeBase 5.775546 -0.000000 -0.000000
RightUpLeg -29.774918 -6.743406 -5.597249
RightLeg 12.462922 -0.000000 -0.000000
RightFoot -10.875772 -4.688767 20.216050
RightToeBase 9.683594 -0.000000 -0.000000
2
root 6.532583 36.246823 0.153192 -141.988227 -86.898733 168.694944
Spine -27.510595 0.187477 -2.482028
Head 6.177619 10.601093 4.650581
LeftShoulder -4.161746 11.366882 30.147586
LeftArm 14.701797 -39.827128 -41.600741
LeftForeArm 11.362928 -0.000000 0.247718
LeftHand -11.783963 -0.000000 -10.245800
LeftHandThumb1 -26.253704 0.000000 33.147579
RightShoulder -21.788152 -39.722743 -13.558915
RightArm 60.594458 49.599282 63.608777
RightForeArm 8.021414 0.000000 -2.639248
RightHand -2.064969 -0.000000 6.571042
RightHandThumb1 -24.326973 -0.000000 -32.862282
LeftUpLeg -29.561381 14.524822 0.573759
LeftLeg 12.984369 -0.000000 -0.000000
LeftFoot -9.095984 7.841411 -13.371655
LeftToeBase 5.789206 -0.000000 -0.000000
RightUpLeg -29.787474 -6.740558 -5.597651
RightLeg 12.473444 -0.000000 -0.000000
RightFoot -10.881491 -4.694748 20.230810
RightToeBase 9.683085 -0.000000 -0.000000
3
root 6.536434 36.246657 0.153941 -141.968442 -86.905479 168.675429
Spine -27.488825 0.187472 -2.481425
Head 6.189826 10.564194 4.673257
LeftShoulder -4.153698 11.363587 30.130849
LeftArm 14.714852 -39.831151 -41.582319
LeftForeArm 11.330860 -0.000000 0.209741
LeftHand -11.293453 -0.000000 -10.376679
LeftHandThumb1 -26.253704 0.000000 33.147579
RightShoulder -21.780925 -39.713396 -13.539718
RightArm 60.592536 49.601386 63.589620
RightForeArm 8.008794 -0.000000 -2.642808
RightHand -2.011624 0.000000 6.547096
RightHandThumb1 -24.326973 -0.000000 -32.862282
LeftUpLeg -29.583980 14.530029 0.572112
LeftLeg 13.009760 -0.000000 -0.000000
LeftFoot -9.094863 7.818025 -13.371098
LeftToeBase 5.824913 -0.000000 -0.000000
RightUpLeg -29.810415 -6.756883 -5.592149
RightLeg 12.504923 -0.000000 -0.000000
RightFoot -10.877535 -4.673007 20.222304
RightToeBase 9.675365 -0.000000 -0.000000
4
root 6.539899 36.246456 0.154496 -141.942874 -86.906777 168.649345
Spine -27.466471 0.186651 -2.476201
Head 6.206468 10.543319 4.676739
LeftShoulder -4.149302 11.366473 30.131502
LeftArm 14.722611 -39.814137 -41.591839
LeftForeArm 11.296697 -0.000000 0.205624
LeftHand -11.268004 -0.000000 -10.379529
LeftHandThumb1 -26.253704 0.000000 33.147579
RightShoulder -21.778194 -39.718202 -13.534127
RightArm 60.625772 49.597579 63.610552
RightForeArm 7.981545 -0.000000 -2.632085
RightHand -2.009904 -0.000000 6.593712
RightHandThumb1 -24.326973 -0.000000 -32.862282
LeftUpLeg -29.600531 14.534127 0.570563
LeftLeg 13.029636 -0.000000 -0.000000
LeftFoot -9.091291 7.799585 -13.389554
LeftToeBase 5.781477 -0.000000 -0.000000
RightUpLeg -29.823782 -6.753994 -5.596656
RightLeg 12.522133 -0.000000 -0.000000
RightFoot -10.876946 -4.668892 20.242383
RightToeBase 9.676480 -0.000000 -0.000000
5
root 6.544231 36.246194 0.154155 -141.837704 -86.922564 168.541918
Spine -27.439798 0.180404 -2.471400
Head 6.226359 10.522079 4.679965
LeftShoulder -4.129336 11.379891 30.130854
LeftArm 14.734532 -39.786167 -41.597882
LeftForeArm 11.277515 -0.000000 0.205925
LeftHand -11.246138 0.000000 -10.368512
LeftHandThumb1 -26.253704 0.000000 33.147579
RightShoulder -21.779642 -39.727624 -13.524493
RightArm 60.615851 49.572582 63.577914
RightForeArm 7.976698 -0.000000 -2.629771
RightHand -2.012567 -0.000000 6.550368
RightHandThumb1 -24.326973 -0.000000 -32.862282
LeftUpLeg -29.621370 14.526926 0.571985
LeftLeg 13.053439 -0.000000 -0.000000
LeftFoot -9.089778 7.789549 -13.379048
LeftToeBase 5.804004 -0.000000 -0.000000
RightUpLeg -29.840074 -6.772228 -5.590010
RightLeg 12.549861 -0.000000 -0.000000
RightFoot -10.873713 -4.663773 20.221415
RightToeBase 9.642643 -0.000000 -0.000000
